<?xml version="1.0" standalone="no"?>
<!DOCTYPE svg PUBLIC "-//W3C//DTD SVG 20010904//EN"
 "http://www.w3.org/TR/2001/REC-SVG-20010904/DTD/svg10.dtd">
<svg version="1.0" xmlns="http://www.w3.org/2000/svg"
 width="700.000000pt" height="700.000000pt" viewBox="0 0 700.000000 700.000000"
 preserveAspectRatio="xMidYMid meet">
<metadata>
Created by potrace 1.11, written by Peter Selinger 2001-2013
</metadata>
<g transform="translate(0.000000,700.000000) scale(0.100000,-0.100000)"
fill="#000000" stroke="none">
<path d="M3483 6705 c0 -162 4 -298 8 -301 5 -2 63 -7 131 -9 68 -3 137 -7
153 -9 17 -3 57 -8 90 -12 33 -3 69 -8 80 -10 11 -3 38 -7 60 -10 71 -10 247
-54 362 -89 483 -151 942 -444 1273 -814 41 -46 80 -88 85 -95 6 -6 41 -50 78
-97 216 -278 402 -658 497 -1012 33 -123 33 -126 45 -197 4 -25 9 -54 11 -65
3 -11 7 -36 9 -55 3 -19 8 -48 10 -65 25 -154 25 -593 1 -725 -3 -14 -7 -43
-10 -65 -3 -22 -8 -56 -11 -75 -6 -33 -8 -44 -20 -107 -16 -81 -72 -272 -112
-383 -240 -666 -738 -1238 -1367 -1570 -292 -154 -638 -268 -931 -306 -22 -2
-45 -7 -52 -9 -72 -25 -577 -25 -733 -1 -14 2 -46 7 -71 10 -212 29 -516 116
-715 204 -309 137 -560 299 -798 515 -427 387 -724 882 -866 1442 -36 142 -39
150 -62 147 -12 -1 -81 -13 -153 -27 -166 -31 -165 -31 -260 -49 -44 -8 -96
-18 -115 -21 -19 -3 -35 -7 -36 -8 -5 -4 37 -180 69 -297 332 -1180 1286
-2113 2481 -2425 72 -19 145 -37 161 -40 151 -27 257 -45 295 -49 249 -28 670
-28 860 0 144 21 295 48 345 61 33 8 67 16 75 18 109 22 388 117 550 188 119
51 305 146 352 178 14 11 29 19 33 19 24 0 383 257 495 355 118 103 293 278
365 365 21 25 40 47 44 50 4 3 36 43 72 90 385 499 629 1083 710 1696 38 296
31 756 -16 1014 -25 137 -40 208 -55 270 -193 773 -612 1422 -1246 1928 -188
151 -484 330 -719 434 -250 111 -585 215 -810 252 -200 33 -311 44 -492 52
l-150 6 0 -297z"/>
<path d="M5078 4195 c-2 -1 -38 -5 -82 -8 -230 -18 -426 -118 -551 -282 -34
-44 -85 -150 -102 -209 -21 -75 -24 -247 -7 -329 60 -278 290 -472 598 -503
121 -12 219 -9 326 11 14 2 56 9 93 16 81 14 77 9 142 200 l44 131 -34 14
c-41 17 -45 17 -45 3 0 -24 -94 -151 -146 -198 -175 -155 -437 -109 -582 101
-35 50 -79 151 -87 199 -3 18 -8 36 -11 41 -10 17 -13 234 -3 291 20 121 77
244 148 316 117 120 314 152 461 75 54 -28 76 -47 111 -94 28 -39 69 -120 69
-138 0 -18 18 -24 51 -17 l31 7 -7 62 c-4 33 -8 70 -10 81 -1 11 -5 36 -8 55
-4 19 -9 53 -12 74 -3 22 -7 42 -9 44 -4 3 -100 27 -152 37 -16 3 -60 8 -99
11 -38 3 -82 7 -97 9 -15 2 -28 2 -30 0z"/>
<path d="M2045 4175 c-281 -63 -470 -258 -518 -536 -29 -164 2 -338 86 -478
42 -70 139 -167 210 -209 182 -109 435 -125 639 -41 245 101 390 326 392 609
1 146 -13 213 -70 329 -75 152 -232 276 -408 321 -86 22 -246 24 -331 5z m258
-99 c176 -86 278 -375 246 -696 -12 -124 -30 -187 -76 -275 -97 -185 -328
-220 -476 -71 -117 117 -176 295 -174 530 1 165 14 231 70 345 86 175 254 244
410 167z"/>
<path d="M3016 4160 c-1 -3 -1 -18 -1 -35 0 -28 3 -30 48 -37 60 -8 92 -28
105 -66 13 -38 14 -913 1 -973 -6 -25 -19 -51 -32 -61 -19 -15 -99 -35 -119
-30 -5 1 -8 -15 -8 -36 l0 -37 295 0 c193 0 295 3 296 10 0 5 2 18 4 27 4 23
-13 35 -62 42 -99 13 -105 30 -107 301 l-1 170 42 -2 c74 -3 98 -27 173 -168
173 -329 234 -377 491 -392 l86 -5 7 27 c4 15 6 28 4 30 -2 1 -24 16 -49 33
-26 17 -65 53 -87 79 -45 54 -187 277 -251 395 l-42 76 61 33 c121 64 182 166
181 299 -1 176 -122 290 -334 316 -70 8 -698 12 -701 4z m621 -97 c62 -29 112
-96 128 -173 11 -51 8 -165 -4 -189 -7 -12 -9 -21 -6 -21 12 0 -27 -62 -59
-95 -34 -34 -66 -52 -116 -62 -32 -7 -122 -11 -135 -6 -6 2 -9 93 -9 251 2
284 2 273 13 290 19 31 127 34 188 5z"/>
</g>
</svg>
