<svg style="position: absolute; width: 0; height: 0;" width="0" height="0" version="1.1" xmlns="http://www.w3.org/2000/svg" xmlns:xlink="http://www.w3.org/1999/xlink">
  <defs>
    <symbol id="orc-icon-clock" viewBox="0 0 1024 1024">
      <title>Clock</title>
      <path class="path1 fill-color1" d="M513.016 934.39c-233.584 0-423.616-190.016-423.616-423.6 0-233.568 190.032-423.584 423.616-423.584s423.616 190.016 423.616 423.584c0 233.584-190.032 423.6-423.616 423.6zM513.016 55.206c-251.216 0-455.616 204.368-455.616 455.584 0 251.232 204.4 455.6 455.616 455.6s455.616-204.368 455.616-455.6c0-251.216-204.4-455.584-455.616-455.584z"></path>
      <path class="path2 fill-color1" d="M736.938 279.157l-203.616 204.592c-6.32-3.072-13.344-4.944-20.848-4.944-7.552 0-14.592 1.888-20.96 4.992l-130.768-130.784c-6.24-6.24-16.368-6.24-22.624 0-6.24 6.256-6.24 16.384 0 22.624l130.944 130.96c-2.88 6.16-4.592 12.944-4.592 20.208 0 26.496 21.472 48 48 48 26.496 0 48-21.504 48-48 0-7.296-1.76-14.112-4.64-20.304l203.792-204.784c6.24-6.256 6.208-16.384-0.064-22.624-6.24-6.24-16.384-6.192-22.624 0.064z"></path>
      <path class="path3 fill-color1" d="M512.469 798.797c-26.512 0-48 21.488-48 48 0 26.496 21.488 48 48 48 26.496 0 48-21.504 48-48 0-26.512-21.504-48-48-48z"></path>
      <path class="path4 fill-color1" d="M512.469 238.797c26.496 0 48-21.504 48-48 0-26.512-21.504-48-48-48-26.512 0-48 21.488-48 48 0 26.496 21.488 48 48 48z"></path>
      <path class="path5 fill-color1" d="M848.469 478.797c-26.512 0-48 21.488-48 48 0 26.496 21.488 48 48 48 26.496 0 48-21.504 48-48 0-26.512-21.504-48-48-48z"></path>
      <path class="path6 fill-color1" d="M192.469 478.797c-26.512 0-48 21.488-48 48 0 26.496 21.488 48 48 48 26.496 0 48-21.504 48-48 0-26.512-21.504-48-48-48z"></path>
    </symbol>
    <symbol id="orc-icon-clipboard" viewBox="0 0 1024 1024">
      <title>Clipboard</title>
      <path class="path1 fill-color1" d="M842.087 96.991h-162.989c-8.793-15.074-20.57-27.008-35.33-35.801s-30.933-13.19-48.52-13.19h-149.799c-17.587 0-33.76 4.397-48.52 13.19s-26.537 20.727-35.33 35.801h-168.642c-4.397 0-8.322 1.57-11.777 4.711s-5.182 6.909-5.182 11.306v846.035c0 4.397 1.727 8.322 5.182 11.777s7.38 5.182 11.777 5.182h649.129c4.397 0 8.165-1.727 11.306-5.182s4.711-7.38 4.711-11.777v-846.035c0-4.397-1.57-8.165-4.711-11.306s-6.909-4.711-11.306-4.711v0zM371.963 258.095h287.35c5.025 0 9.107-1.57 12.248-4.711s4.711-7.223 4.711-12.248v-25.438h61.239v639.708h-436.207v-639.708h53.702v25.438c0 5.025 1.727 9.107 5.182 12.248s7.38 4.711 11.777 4.711v0zM445.45 80.975h149.799c9.421 0 18.372 2.041 26.851 6.124s15.545 9.892 21.198 17.429v120.593h-254.376v-97.982c0-0.628-0.157-1.57-0.471-2.826s-0.785-2.512-1.413-3.769h0.471c0.314 0 0.471-0.314 0.471-0.942 4.397-11.306 11.934-20.57 22.611-27.793s22.297-10.835 34.859-10.835v0zM825.129 942.083h-615.212v-812.118h145.088v52.759h-70.66c-4.397 0-8.165 1.57-11.306 4.711s-4.711 7.223-4.711 12.248v671.74c0 5.025 1.57 9.107 4.711 12.248s6.909 4.711 11.306 4.711h470.124c4.397 0 8.322-1.57 11.777-4.711s5.182-7.223 5.182-12.248v-671.74c0-5.025-1.727-9.107-5.182-12.248s-7.38-4.711-11.777-4.711h-78.197v-52.759h148.857v812.118zM388.922 399.415h260.971c5.025 0 9.107-1.727 12.248-5.182s4.711-7.38 4.711-11.777c0-4.397-1.57-8.322-4.711-11.777s-7.223-5.182-12.248-5.182h-260.971c-5.025 0-9.107 1.727-12.248 5.182s-4.711 7.38-4.711 11.777c0 4.397 1.57 8.322 4.711 11.777s7.223 5.182 12.248 5.182v0zM388.922 466.307h260.971c5.025 0 9.107-1.727 12.248-5.182s4.711-7.38 4.711-11.777c0-4.397-1.57-8.322-4.711-11.777s-7.223-5.182-12.248-5.182h-260.971c-5.025 0-9.107 1.727-12.248 5.182s-4.711 7.38-4.711 11.777c0 4.397 1.57 8.322 4.711 11.777s7.223 5.182 12.248 5.182v0zM388.922 533.198h260.971c5.025 0 9.107-1.727 12.248-5.182s4.711-7.38 4.711-11.777c0-4.397-1.57-8.322-4.711-11.777s-7.223-5.182-12.248-5.182h-260.971c-5.025 0-9.107 1.727-12.248 5.182s-4.711 7.38-4.711 11.777c0 4.397 1.57 8.322 4.711 11.777s7.223 5.182 12.248 5.182v0zM388.922 600.089h260.971c5.025 0 9.107-1.57 12.248-4.711s4.711-7.223 4.711-12.248c0-4.397-1.57-8.322-4.711-11.777s-7.223-5.182-12.248-5.182h-260.971c-5.025 0-9.107 1.727-12.248 5.182s-4.711 7.38-4.711 11.777c0 5.025 1.57 9.107 4.711 12.248s7.223 4.711 12.248 4.711v0zM388.922 784.747h260.971c5.025 0 9.107-1.727 12.248-5.182s4.711-7.38 4.711-11.777c0-5.025-1.57-9.107-4.711-12.248s-7.223-4.711-12.248-4.711h-260.971c-5.025 0-9.107 1.57-12.248 4.711s-4.711 7.223-4.711 12.248c0 4.397 1.57 8.322 4.711 11.777s7.223 5.182 12.248 5.182v0zM388.922 666.981h110.229c5.025 0 9.107-1.57 12.248-4.711s4.711-7.223 4.711-12.248c0-4.397-1.57-8.165-4.711-11.306s-7.223-4.711-12.248-4.711h-110.229c-5.025 0-9.107 1.57-12.248 4.711s-4.711 6.909-4.711 11.306c0 5.025 1.57 9.107 4.711 12.248s7.223 4.711 12.248 4.711v0z"></path>
    </symbol>
    <symbol id="orc-icon-folder" viewBox="0 0 1024 1024">
      <title>Folder</title>
      <path class="path1 fill-color1" d="M879.532 178.073h-589.92v16.222c0-45.953-37.235-83.188-83.188-83.188h-74.736c-45.953 0-83.188 37.235-83.188 83.188v656.188c0 45.936 37.235 83.188 83.188 83.188h747.844c45.953 0 83.188-37.252 83.188-83.188v-589.221c0-45.936-37.235-83.188-83.188-83.188v0zM929.445 850.483c0 27.519-22.378 49.913-49.913 49.913h-747.844c-27.519 0-49.913-22.394-49.913-49.913v-535.565h847.67v535.565zM929.445 281.643h-847.67v-87.348c0-27.519 22.394-49.913 49.913-49.913h74.736c27.535 0 49.913 22.394 49.913 49.913v16.638l623.195 0.416c27.535 0 49.913 22.394 49.913 49.913v20.381z"></path>
      <path class="path2 fill-color1" d="M650.099 556.113h-102.97v-102.92c0-2.912-2.346-5.257-5.241-5.257h-72.54c-2.895 0-5.257 2.346-5.257 5.257v102.92h-102.97c-2.895 0-5.241 2.346-5.241 5.241v72.59c0 2.912 2.346 5.257 5.241 5.257h102.97v102.92c0 2.895 2.363 5.257 5.257 5.257h72.54c2.895 0 5.241-2.363 5.241-5.257v-102.92h102.97c2.912 0 5.257-2.346 5.257-5.257v-72.59c0-2.895-2.346-5.241-5.257-5.241z"></path>
    </symbol>
    <symbol id="orc-icon-gear" viewBox="0 0 1024 1024">
      <title>Gear</title>
      <path class="path1 fill-color1" d="M526.010 96.613c5.591 0 10.405 2.019 14.443 6.057s6.057 8.852 6.057 14.443v88.52l25.158 6.523c14.288 3.106 28.109 7.299 41.465 12.579s26.245 11.337 38.669 18.17l21.431 12.113 60.567-60.567c1.864-1.864 4.038-3.261 6.523-4.193s4.97-1.398 7.454-1.398c2.485 0 4.97 0.466 7.454 1.398s4.659 2.329 6.523 4.193l50.317 50.317c3.727 3.727 5.591 8.386 5.591 13.977s-1.864 10.25-5.591 13.977l-40.067 40.999-18.636 17.704 13.045 22.363c8.697 14.288 16.151 28.886 22.363 43.794s11.182 30.128 14.909 45.658l5.591 26.090h89.452c5.591 0 10.25 1.864 13.977 5.591s5.591 8.386 5.591 13.977v70.816c0 5.591-1.864 10.405-5.591 14.443s-8.386 6.057-13.977 6.057h-92.248l-7.454 23.295c-4.348 14.909-9.629 29.351-15.84 43.328s-13.666 27.488-22.363 40.533l-14.909 22.363 57.771 57.771c3.727 3.727 5.591 8.386 5.591 13.977s-1.864 10.25-5.591 13.977l-50.317 50.317c-1.864 1.864-4.038 3.261-6.523 4.193s-4.97 1.398-7.454 1.398c-3.106 0-5.901-0.466-8.386-1.398s-4.659-2.329-6.523-4.193l-62.43-62.43-21.431 11.182c-10.56 5.591-21.586 10.405-33.079 14.443s-23.45 7.61-35.874 10.716l-25.158 5.591v89.452c0 5.591-2.019 10.25-6.057 13.977s-8.852 5.591-14.443 5.591h-70.816c-5.591 0-10.25-1.864-13.977-5.591s-5.591-8.386-5.591-13.977v-92.248l-24.227-7.454c-12.424-3.727-24.848-8.231-37.272-13.511s-24.537-11.647-36.34-19.102l-22.363-13.045-67.089 67.089c-1.864 1.864-4.038 3.417-6.523 4.659s-4.97 1.864-7.454 1.864c-3.106 0-5.901-0.621-8.386-1.864s-4.659-2.795-6.523-4.659l-49.385-49.385c-4.348-4.348-6.523-9.318-6.523-14.909s2.174-10.25 6.523-13.977l68.953-68.953-12.113-21.431c-5.591-9.939-10.56-20.344-14.909-31.215s-8.386-21.897-12.113-33.079l-6.523-23.295h-92.248c-5.591 0-10.405-2.019-14.443-6.057s-6.057-8.852-6.057-14.443v-70.816c0-5.591 2.019-10.25 6.057-13.977s8.852-5.591 14.443-5.591h88.52l6.523-26.090c2.485-11.803 5.901-23.45 10.25-34.942s9.318-22.829 14.909-34.010l11.182-21.431-17.704-16.772-54.044-54.044c-1.864-1.864-3.261-4.038-4.193-6.523s-1.398-5.28-1.398-8.386c0-2.485 0.466-4.97 1.398-7.454s2.329-4.659 4.193-6.523l50.317-49.385c1.864-2.485 4.038-4.193 6.523-5.125s4.97-1.398 7.454-1.398c2.485 0 4.97 0.466 7.454 1.398s4.659 2.64 6.523 5.125l66.157 66.157 23.295-14.909c12.424-8.697 25.624-16.306 39.601-22.829s28.42-11.958 43.328-16.306l24.227-6.523v-92.248c0-5.591 1.864-10.405 5.591-14.443s8.386-6.057 13.977-6.057h70.816zM499.92 734.892c30.439 0 58.858-5.746 85.259-17.238s49.54-27.177 69.419-47.056c19.878-19.878 35.563-43.173 47.056-69.885s17.238-54.976 17.238-84.793c0-30.439-5.746-59.013-17.238-85.725s-27.177-49.851-47.056-69.419c-19.878-19.568-43.018-35.253-69.419-47.056s-54.82-17.704-85.259-17.704c-30.439 0-58.858 5.746-85.259 17.238s-49.54 27.177-69.419 47.056c-19.878 19.878-35.563 43.173-47.056 69.885s-17.238 55.286-17.238 85.725c0 29.818 5.746 58.082 17.238 84.793s27.177 50.006 47.056 69.885c19.878 19.878 43.018 35.563 69.419 47.056s54.82 17.238 85.259 17.238v0zM526.010 64h-70.816c-14.288 0-26.711 5.125-37.272 15.375s-15.84 22.829-15.84 37.738v67.089c-16.151 4.97-31.992 11.026-47.521 18.17s-30.439 15.375-44.726 24.693l-47.521-47.521c-4.97-4.97-10.716-8.697-17.238-11.182s-13.2-3.727-20.034-3.727c-6.833 0-13.511 1.242-20.034 3.727s-12.269 6.212-17.238 11.182l-50.317 50.317c-10.56 10.56-15.84 23.139-15.84 37.738s5.28 27.177 15.84 37.738l54.044 54.044c-6.212 11.803-11.647 24.227-16.306 37.272s-8.541 26.090-11.647 39.135h-62.43c-14.909 0-27.488 5.28-37.738 15.84s-15.375 22.984-15.375 37.272v70.816c0 14.909 5.125 27.488 15.375 37.738s22.829 15.375 37.738 15.375h67.089c3.727 12.424 8.076 24.537 13.045 36.34s10.56 23.295 16.772 34.476l-51.249 51.249c-10.56 10.56-15.84 23.139-15.84 37.738s5.28 27.177 15.84 37.738l49.385 50.317c5.591 4.97 11.647 8.697 18.17 11.182s13.2 3.727 20.034 3.727c6.833 0 13.511-1.242 20.034-3.727s12.269-6.212 17.238-11.182l49.385-49.385c12.424 7.454 25.469 14.287 39.135 20.499s27.643 11.182 41.931 14.909v68.021c0 14.288 5.28 26.711 15.84 37.272s22.984 15.84 37.272 15.84h70.816c14.909 0 27.643-5.28 38.204-15.84s15.84-22.984 15.84-37.272v-63.362c13.045-3.106 25.935-6.988 38.669-11.647s25.003-10.094 36.806-16.306l45.658 45.658c5.591 5.591 11.647 9.629 18.17 12.113s13.2 3.727 20.034 3.727c6.833 0 13.511-1.242 20.034-3.727s12.269-6.523 17.238-12.113l50.317-50.317c9.939-9.939 14.909-22.363 14.909-37.272s-4.97-27.333-14.909-37.272l-38.204-38.204c9.318-14.288 17.549-29.196 24.693-44.726s13.2-31.681 18.17-48.453h67.089c14.909 0 27.488-5.125 37.738-15.375s15.375-22.829 15.375-37.738v-70.816c0-14.288-5.125-26.711-15.375-37.272s-22.829-15.84-37.738-15.84h-63.362c-3.727-17.394-9.007-34.476-15.84-51.249s-14.909-32.613-24.227-47.521l40.067-40.999c10.56-9.939 15.84-22.363 15.84-37.272s-5.28-27.333-15.84-37.272l-49.385-50.317c-5.591-5.591-11.647-9.629-18.17-12.113s-13.2-3.727-20.034-3.727c-6.833 0-13.511 1.242-20.034 3.727s-12.269 6.523-17.238 12.113l-42.863 42.863c-13.666-8.076-27.798-14.909-42.397-20.499s-29.662-10.25-45.192-13.977v-62.43c0-14.909-5.28-27.488-15.84-37.738s-23.295-15.375-38.204-15.375v0zM499.92 701.347c-25.469 0-49.54-4.814-72.214-14.443s-42.397-22.829-59.169-39.601c-16.772-16.772-30.128-36.495-40.067-59.169s-14.909-46.745-14.909-72.214c0-26.090 4.97-50.317 14.909-72.68s23.295-42.086 40.067-59.169c16.772-17.083 36.495-30.439 59.169-40.067s46.745-14.443 72.214-14.443c25.469 0 49.54 4.814 72.214 14.443s42.397 22.984 59.169 40.067c16.772 17.083 30.128 36.806 40.067 59.169s14.909 46.59 14.909 72.68c0 25.469-4.97 49.54-14.909 72.214s-23.295 42.397-40.067 59.169c-16.772 16.772-36.495 29.973-59.169 39.601s-46.745 14.443-72.214 14.443v0z"></path>
    </symbol>
    <symbol id="orc-icon-people" viewBox="0 0 1024 1024">
      <title>People</title>
      <path class="path1 fill-color1" d="M931.145 666.192c-6.108-20.766-15.879-36.492-29.316-47.18s-20.155-16.032-20.155-16.032c0 0-20.155-5.497-60.464-16.49s-69.931-20.765-88.864-29.316c-5.497-2.443-10.383-5.955-14.658-10.535s-7.94-9.619-10.994-15.116c26.873-18.933 48.707-46.57 65.503-82.909s25.193-78.634 25.193-126.883c0-69.626-16.948-116.653-50.845-141.083s-74.664-36.645-122.303-36.645c-48.25 0-89.322 12.215-123.219 36.645s-50.845 71.457-50.845 141.083c0 48.25 8.398 90.544 25.193 126.883s38.63 63.976 65.503 82.909c-3.054 5.497-6.871 10.535-11.452 15.116s-9.619 8.092-15.116 10.535c-3.054 1.222-6.871 2.748-11.452 4.581s-9.314 3.664-14.2 5.497c-4.886-5.497-9.314-9.772-13.284-12.826s-5.955-4.581-5.955-4.581c0 0-13.894-3.664-41.684-10.994s-48.097-14.047-60.922-20.155c-4.275-1.832-7.94-4.275-10.994-7.329s-5.497-6.413-7.329-10.077c18.933-13.437 34.202-32.675 45.806-57.716s17.406-54.357 17.406-87.948c0-48.86-11.757-81.688-35.271-98.484s-52.066-25.193-85.658-25.193c-32.981 0-61.228 8.398-84.742 25.193s-35.271 49.623-35.271 98.484c0 33.591 5.802 62.907 17.406 87.948s26.568 43.974 44.89 56.8c-1.832 3.665-4.275 7.176-7.329 10.535s-6.413 5.955-10.077 7.787c-13.437 6.108-34.049 12.826-61.838 20.155s-41.684 10.994-41.684 10.994c0 0-4.733 3.817-14.2 11.452s-16.338 18.781-20.613 33.439c-4.275 13.437-9.619 25.346-16.032 35.729s-10.841 17.101-13.284 20.155c15.88 15.88 47.18 27.636 93.903 35.271s96.651 11.452 149.787 11.452h11.91c-6.108 12.215-12.062 22.903-17.864 32.064s-9.925 15.269-12.368 18.323c10.994 10.994 28.4 20.765 52.219 29.316s51.456 15.574 82.909 21.071c31.454 5.497 65.808 9.619 103.064 12.368s74.817 4.123 112.683 4.123c38.477 0 76.191-1.374 113.142-4.123s71-6.871 102.148-12.368c31.148-5.497 58.479-12.368 81.993-20.613s41.073-17.864 52.677-28.858c-3.054-4.275-9.467-14.047-19.239-29.316s-17.712-32.98-23.819-53.135v0zM92.89 639.624c3.054-4.886 5.955-10.383 8.703-16.49s5.039-12.52 6.871-19.239c1.832-6.108 4.581-11.146 8.245-15.116s6.718-6.871 9.161-8.703c9.772-2.443 26.262-7.024 49.471-13.742s40.92-12.826 53.135-18.323c6.718-3.054 12.826-7.176 18.323-12.368s10.383-11.452 14.658-18.781l14.658-25.652-23.819-17.406c-15.269-10.383-27.331-26.109-36.187-47.18s-13.284-44.737-13.284-71c0-32.981 6.718-56.342 20.155-70.084s36.034-20.613 67.793-20.613c31.759 0 54.357 6.871 67.793 20.613s20.155 37.103 20.155 70.084c0 26.262-4.275 49.929-12.826 71s-20.46 36.798-35.729 47.18l-24.735 17.406 14.658 25.652c4.275 7.329 9.161 13.589 14.658 18.781s11.604 9.314 18.323 12.368c11.604 5.497 27.942 11.299 49.013 17.406s37.408 10.688 49.013 13.742c-20.766 6.108-40.157 11.604-58.174 16.49s-27.026 7.329-27.026 7.329c0 0-6.566 5.191-19.697 15.574s-23.056 25.651-29.774 45.806h-24.735c-45.807 0-85.81-2.443-120.012-7.329s-60.464-10.688-78.787-17.406v0zM624.243 782.54c-36.645 0-71-1.221-103.064-3.665s-61.075-5.649-87.032-9.619c-25.957-3.97-48.707-8.55-68.251-13.742s-35.423-10.841-47.639-16.948c4.886-7.94 9.925-17.406 15.116-28.4s9.619-22.292 13.284-33.897c3.665-11.604 9.009-21.071 16.032-28.4s12.368-12.215 16.032-14.658c12.215-3.665 35.729-10.23 70.542-19.697s61.075-18.475 78.787-27.026c7.94-3.665 15.421-8.856 22.445-15.574s13.284-14.658 18.781-23.819l13.742-25.652-23.819-16.49c-23.819-17.101-42.6-41.836-56.342-74.206s-20.613-68.709-20.613-109.019c0-50.693 11.299-87.49 33.897-110.393s58.632-34.355 108.103-34.355c49.471 0 85.352 11.451 107.645 34.355s33.439 59.701 33.439 110.393c0 40.92-6.871 77.565-20.613 109.935s-32.522 56.8-56.342 73.29l-24.735 17.406 14.658 25.652c4.886 9.161 10.841 16.948 17.864 23.361s14.505 11.452 22.445 15.116c17.712 8.551 43.974 17.559 78.787 27.026s58.327 16.032 70.542 19.697c3.665 2.443 9.161 7.329 16.49 14.658s12.52 16.49 15.574 27.484c3.665 12.826 8.092 24.583 13.284 35.271s10.23 20.307 15.116 28.858c-12.215 5.497-27.942 10.841-47.18 16.032s-41.836 9.772-67.793 13.742c-25.957 3.97-54.815 7.176-86.574 9.619s-65.961 3.665-102.606 3.665v0z"></path>
    </symbol>
    <symbol id="orc-icon-angle-left" viewBox="0 0 1024 1024">
      <title>Angle Left</title>
      <path class="path1" d="M686.529 101.236c-17.859-9.669-41.877-5.571-53.654 9.189l-306.503 385.575c-8.523 10.694-8.484 24.525 0.039 35.186l305.147 382.438c7.438 9.349 19.796 14.375 32.386 14.375 7.283 0 14.682-1.697 21.268-5.283 17.859-9.733 22.779-29.583 11.002-44.343l-291.085-364.829 292.518-367.966c11.738-14.792 6.741-34.642-11.118-44.343z"></path>
    </symbol>
    <symbol id="orc-icon-angle-right" viewBox="0 0 1024 1024">
      <title>Angle Right</title>
      <path class="path1" d="M337.471 101.236c17.859-9.669 41.877-5.571 53.654 9.189l306.503 385.575c8.523 10.694 8.484 24.525-0.039 35.186l-305.147 382.438c-7.438 9.349-19.796 14.375-32.386 14.375-7.283 0-14.682-1.697-21.268-5.283-17.859-9.733-22.779-29.583-11.002-44.343l291.085-364.829-292.518-367.966c-11.738-14.792-6.741-34.642 11.118-44.343z"></path>
    </symbol>
    <symbol id="orc-icon-arrow-prev" viewBox="0 0 1024 1024">
      <title>Arrow Previous</title>
      <path class="path1" d="M520 928c-224.976 0-408-183.024-408-408s183.024-408 408-408c224.976 0 408 183.024 408 408s-183.024 408-408 408zM520 80c-243.008 0-440 196.992-440 440 0 242.992 196.992 440 440 440s440-197.008 440-440c0-243.008-196.992-440-440-440z"></path>
      <path class="path2" d="M560.694 315.296c-7.376-4.832-17.296-2.784-22.16 4.592l-126.592 192.688c-3.52 5.344-3.504 12.256 0.016 17.584l126.032 191.12c3.072 4.672 8.176 7.184 13.376 7.184 3.008 0 6.064-0.848 8.784-2.64 7.376-4.864 9.408-14.784 4.544-22.16l-120.224-182.32 120.816-183.888c4.848-7.392 2.784-17.312-4.592-22.16z"></path>
    </symbol>
    <symbol id="orc-icon-arrow-next" viewBox="0 0 1024 1024">
      <title>Arrow Next</title>
      <path class="path1" d="M520 927.984c-224.976 0-408-183.024-408-408s183.024-407.984 408-407.984c224.976 0 408 183.008 408 407.984s-183.024 408-408 408zM520 80c-243.008 0-440 196.976-440 439.984 0 242.992 196.992 440 440 440s440-197.008 440-440c0-243.008-196.992-439.984-440-439.984z"></path>
      <path class="path2" d="M517.469 319.882c-4.848-7.376-14.768-9.408-22.16-4.592-7.392 4.864-9.44 14.784-4.592 22.176l120.816 183.872-120.24 182.304c-4.848 7.376-2.816 17.296 4.544 22.176 2.72 1.776 5.776 2.64 8.8 2.64 5.2 0 10.304-2.544 13.376-7.2l126.032-191.088c3.52-5.328 3.52-12.256 0.016-17.6l-126.592-192.688z"></path>
    </symbol>
    <symbol id="orc-icon-bars" viewBox="0 0 1024 1024">
      <title>Menu</title>
      <path class="path1" d="M208 304h615.264v-32h-615.264v32z"></path>
      <path class="path2" d="M822.448 495.984h-614.448v32h614.448v-32z"></path>
      <path class="path3" d="M208 747.296h615.264v-32h-615.264v32z"></path>
    </symbol>
    <symbol id="orc-icon-calendar" viewBox="0 0 1024 1024">
      <title>Calendar</title>
      <path class="path1" d="M878.469 937.453h-86.576v-124.24h150.576v60.24c0 35.296-28.704 64-64 64v0zM95.269 873.453v-60.24h150.544v124.24h-86.544c-35.296 0-64-28.704-64-64v0zM159.269 90.269h719.2c35.296 0 64 28.704 64 64v151.312h-847.2v-151.312c0-35.296 28.704-64 64-64v0zM791.893 337.581h150.576v129.184h-150.576v-129.184zM791.893 493.229h150.576v133.52h-150.576v-133.52zM791.893 653.213h150.576v133.536h-150.576v-133.536zM619.125 653.213h146.304v133.536h-146.304v-133.536zM619.125 813.213h146.304v124.24h-146.304v-124.24zM446.277 813.213h146.352v124.24h-146.352v-124.24zM419.797 937.453h-147.488v-124.24h147.488v124.24zM272.309 653.213h147.488v133.536h-147.488v-133.536zM245.813 786.749h-150.56v-133.536h150.56v133.536zM245.813 626.749h-150.56v-133.52h150.56v133.52zM245.813 466.765h-150.56v-129.184h150.56v129.184zM419.797 466.765h-147.488v-129.184h147.488v129.184zM592.629 466.765h-146.352v-129.184h146.352v129.184zM619.125 337.581h146.304v129.184h-146.304v-129.184zM619.125 493.229h146.304v133.52h-146.304v-133.52zM419.797 626.749h-147.488v-133.52h147.488v133.52zM592.629 786.749h-146.352v-133.536h146.352v133.536zM446.277 493.229h146.352v133.52h-146.352v-133.52zM878.469 58.269h-719.2c-52.944 0-96 43.056-96 96v719.184c0 52.944 43.056 96 96 96h719.2c52.944 0 96-43.056 96-96v-719.184c0-52.944-43.056-96-96-96v0z"></path>
      <path class="path2" d="M328.437 237c17.664 0 32-14.336 32-32s-14.336-32-32-32c-17.68 0-32 14.336-32 32s14.32 32 32 32z"></path>
      <path class="path3" d="M712.437 237c17.664 0 32-14.336 32-32s-14.336-32-32-32c-17.68 0-32 14.336-32 32s14.32 32 32 32z"></path>
    </symbol>
    <symbol id="orc-icon-filter" viewBox="0 0 1024 1024">
      <title>Filter</title>
      <path class="path1" d="M80 80l355.993 397.276v466.724l152.265-137.387v-329.337l355.742-397.276h-864z"></path>
    </symbol>
    <symbol id="orc-icon-heartbeat" viewBox="0 0 1024 1024">
      <title>Heartbeat</title>
      <path class="path1 fill-color1" d="M69.087 456c-13.392-31.765-21.087-64.577-21.087-98.511 0-139.579 94.762-290.222 247.843-290.222 70.355 0 142.595 31.126 214.898 92.542 60.203-62.742 128.91-95.809 199.519-95.809 141.565 0 265.74 137.148 265.74 293.489 0 34.159-7.232 66.949-19.88 98.511h-276.12c-8.884 0-17.041 4.907-21.203 12.756l-66.797 123.244-56.522-292.98c-5.219-24.606-39.963-25.629-46.621-1.373l-56.856 214.353-47.585-106.149c-8.19-17.549-32.721-18.672-42.479-1.944l-48.603 52.093h-224.246zM93.882 504c52.206 85.727 140.819 163.602 222.376 235.275 92.466 81.272 179.832 158.046 179.832 219.904l31.646 0.821c3.247-62.442 88.427-136.722 178.612-215.358 83.308-72.639 173.945-151.668 226.056-240.642h-236.404l-88.13 163.244c-10.506 19.811-40.027 15.673-44.681-6.264l-51.189-260.98-51.523 182.353c-5.911 21.534-35.449 24.031-44.892 3.796l-63.585-122.149-21.936 28.093c-4.301 7.373-12.195 11.907-20.731 11.907h-215.451z"></path>
    </symbol>
    <symbol id="orc-icon-stethoscope" viewBox="0 0 1024 1024">
      <title>Stethoscope</title>
      <path class="path1" d="M847.728 860.384c-43.024 0-78-34.992-78-78s34.976-78 78-78c43.008 0 78 34.992 78 78s-34.992 78-78 78zM847.728 672.384c-29.424 0-56.112 11.68-75.872 30.56-25.472-16.72-47.936-23.312-69.728-20.368-41.584 5.6-71.648 45.376-109.744 95.728-22.816 30.16-48.656 64.368-82.16 98.96-50.384 52.032-139.776 71.2-239.088 51.312-83.248-16.688-155.536-59.040-171.84-100.688-3.2-8.128-4.112-14.56-2.48-17.232 4.88-7.888 34.928-10.608 59.072-12.8 62.544-5.696 155.968-14.464 201.312-106.784 19.904 7.12 40.976 10.96 62.928 10.96 130.256 0 274.656-126.768 351.2-308.256 29.584-70.208 35.12-114.64 17.968-144.064-12.144-20.8-33.376-30.64-59.552-36.576-2.064-12.992-12.272-23.696-25.984-25.568l-54.16-7.392c-16.784-2.288-32.24 9.456-34.528 26.24-2.288 16.768 9.472 32.24 26.224 34.544l54.176 7.392c7.904 1.072 15.472-1.040 21.552-5.264 21.136 4.192 37.472 10.496 44.608 22.736 11.12 19.072 4.464 57.936-19.808 115.52-71.664 169.968-203.936 288.688-321.696 288.688-21.104 0-41.248-3.984-59.856-11.856-124-52.272-154.592-261.52-68.208-466.448 27.168-64.416 52.096-95.728 76.224-95.728 14.464 0 31.152 9.968 49.792 23.968-1.664 10.976 2.56 22.48 12.176 29.456l44.224 32.112c13.712 9.952 32.912 6.896 42.848-6.816 9.936-13.696 6.896-32.88-6.816-42.832l-44.24-32.096c-8.224-5.984-18.416-7.184-27.424-4.288-24.048-18.224-46.576-31.504-70.56-31.504-39.488 0-72.096 35.552-105.696 115.296-88.72 210.416-58.336 426.944 65.568 498.448-37.6 75.504-113.6 82.64-175.184 88.24-39.152 3.552-70.096 6.368-83.376 27.856-7.424 12.016-7.472 26.96-0.112 45.728 20.672 52.72 99.184 101.104 195.344 120.384 27.776 5.552 54.912 8.272 80.928 8.272 77.056 0 144.096-23.92 187.472-68.72 34.832-35.984 61.312-71.008 84.688-101.904 34.896-46.144 60.128-79.488 88.496-83.312 12.912-1.792 28.032 2.88 45.648 13.984-9.072 16-14.336 34.448-14.336 54.112 0 60.656 49.344 110 110 110s110-49.344 110-110c0-60.656-49.344-110-110-110z"></path>
    </symbol>
  </defs>
</svg>
