<svg xmlns="http://www.w3.org/2000/svg" viewBox="0 0 269.12 26.29"><title>MD Anderson Cancer Center</title><path d="M65.21 23.14v-5.1c0-2.58-1.3-4.09-3.43-4.09a4 4 0 0 0-2.18.8c-.66.42-1.22.85-1.75 1.22v-2.12a19.74 19.74 0 0 1-3.9 1.06v.64c1.41.27 1.57.35 1.57 2v5.47c0 1.55-.11 1.83-1.37 2-1.59-.18-1.93-.46-2.73-2.72-1.64-4.59-3.35-9.59-4.93-14.15l-.89.27-5.39 13.98c-.87 2.31-1.23 2.5-2.86 2.74v.77h5.6v-.78c-1.92-.21-2.12-.48-1.61-2.1.36-1.09.72-2.18 1.1-3.29h5.37c.54 1.51 1 2.89 1.33 3.88s.15 1.3-1.46 1.51v.77h11.71v-.72c-1.46-.16-1.62-.27-1.62-2v-6.33a4.42 4.42 0 0 1 2.74-1.25c1.59 0 2.28 1.09 2.28 2.92v4.44c0 1.86-.16 2-1.65 2.2v.72h5.63v-.7c-1.45-.18-1.56-.26-1.56-2.04zm-22.28-4.59c.74-2.15 1.53-4.38 2.33-6.59h.08l2.17 6.59h-4.58zm45.78 5l-.4-.58a4.42 4.42 0 0 1-3 1.3c-1.86 0-3.85-1.46-3.9-5 3.08-.11 6.37-.37 6.83-.45a.7.7 0 0 0 .64-.88 4.16 4.16 0 0 0-4-4.06 5.59 5.59 0 0 0-3.9 1.94 6.83 6.83 0 0 0-1.78 4.67c0 3 1.91 5.66 5.21 5.66a5.91 5.91 0 0 0 4.25-2.56zm-4.54-8.63a2.39 2.39 0 0 1 2.2 2.66c0 .4-.16.53-.61.53-1.46.05-2.87.08-4.28.08.36-2.09 1.47-3.23 2.64-3.23zm11.5 10.22v.72h-6.32v-.68c1.59-.16 1.81-.32 1.81-2v-5.59c0-1.67-.13-1.78-1.59-2v-.63a18.42 18.42 0 0 0 3.87-1.11v2.9h.05c.82-1.41 1.94-2.84 3.16-2.84a1.52 1.52 0 0 1 1.56 1.45 1.57 1.57 0 0 1-.93 1.41.61.61 0 0 1-.72-.08 1.59 1.59 0 0 0-1.17-.53c-.64 0-1.43.69-2 2.12v4.86c.05 1.71.19 1.88 2.23 2.04zm5.87 1a5.59 5.59 0 0 1-3.08-.88 12.71 12.71 0 0 1-.45-3.24l.72-.11c.5 1.75 1.7 3.35 3.29 3.35a1.78 1.78 0 0 0 1.83-1.81c0-1.09-.69-1.73-2.1-2.36s-3.35-1.62-3.35-3.72c0-1.91 1.62-3.51 4.12-3.51a5.73 5.73 0 0 1 2.42.48 20.26 20.26 0 0 1 .58 2.87l-.72.19c-.59-1.55-1.48-2.55-2.78-2.55a1.65 1.65 0 0 0-1.67 1.75c0 1.12 1 1.75 2.2 2.26 2 .85 3.4 1.81 3.4 3.69 0 2.45-2.28 3.67-4.46 3.67zm17.1-6.29a5.78 5.78 0 0 0-5.76-5.95 6.09 6.09 0 0 0-5.92 6.4 5.75 5.75 0 0 0 5.9 5.87c2.68.05 5.78-2 5.78-6.32zm-6.13-5c2.2 0 3.4 2.44 3.4 5.66 0 3.69-1.3 4.81-2.81 4.81-2.12 0-3.48-2.5-3.48-5.84.02-3.03 1.38-4.63 2.89-4.63zm19.36 10.33v.72h-5.66v-.72c1.49-.16 1.65-.35 1.65-2.2v-4.44c0-1.83-.69-2.92-2.28-2.92a4.42 4.42 0 0 0-2.71 1.23v6.27c0 1.78.16 1.89 1.62 2v.72h-5.87v-.66c1.78-.19 1.91-.32 1.91-2.07v-5.47c0-1.7-.16-1.78-1.57-2v-.68a19.73 19.73 0 0 0 3.9-1.06v2.07c.53-.37 1.09-.8 1.75-1.22a4 4 0 0 1 2.18-.8c2.12 0 3.43 1.51 3.43 4.09v5.1c-.01 1.78.16 1.86 1.65 2.04zm-52.58 0v-.66l-.8-.08c-1-.11-1.2-.24-1.2-1.65V8.5a28.08 28.08 0 0 1-4.33.9v.69c1.86.13 2 .24 2 1.91v2.24a5.66 5.66 0 0 0-1.65-.29 6.82 6.82 0 0 0-6.93 6.59 5.39 5.39 0 0 0 5 5.68 4.16 4.16 0 0 0 1.94-.72l1.62-1v1.7a32 32 0 0 1 4.35-.99zm-6.69-.72c-1.62 0-3.56-1.49-3.56-4.67 0-3.88 2.2-4.83 3.32-4.83a3.1 3.1 0 0 1 2.6 1.35v7.33a4.23 4.23 0 0 1-2.36.85zm72.07 1.79c-6.41 0-9.18-4.4-9.18-8.41 0-5.34 4.09-8.87 9.84-8.87a18.94 18.94 0 0 1 4.52.69c.2 1.42.36 2.49.51 3.89l-.79.18c-.69-2.75-2.29-3.81-4.88-3.81-4.17 0-6.38 3.56-6.38 7.4 0 4.75 2.75 8 6.53 8 2.52 0 3.91-1.4 5.21-3.91l.74.28a28.14 28.14 0 0 1-1.42 3.94 23.86 23.86 0 0 1-4.7.66zm16.71-1.07v.67h5.83v-.67c-1.45-.16-1.61-.26-1.61-2v-6.27a4.39 4.39 0 0 1 2.72-1.24c1.59 0 2.27 1.08 2.27 2.91v4.41c0 1.85-.16 2-1.64 2.19v.67h5.6v-.67c-1.48-.19-1.64-.26-1.64-2v-5.11c0-2.56-1.29-4.07-3.41-4.07a4 4 0 0 0-2.17.79c-.66.42-1.22.85-1.74 1.22v-2.06a19.64 19.64 0 0 1-3.88 1.06v.63c1.4.26 1.56.34 1.56 2v5.44c0 1.71-.14 1.87-1.82 2.05l.57-.33-.26-.71a1.88 1.88 0 0 1-.92.26c-.48 0-.92-.37-.92-1.56v-4.77a3.91 3.91 0 0 0-1.22-3.3 3.62 3.62 0 0 0-2.25-.71 13 13 0 0 0-4 1.82 1.58 1.58 0 0 0-.85 1.11 1.32 1.32 0 0 0 1.24 1.16.81.81 0 0 0 .85-.66 4.72 4.72 0 0 1 .77-1.74 1.38 1.38 0 0 1 1.11-.5c1.27 0 2.11 1.06 2.11 2.91v.53a19.68 19.68 0 0 1-4.12 1.74c-1.43.5-2.11 1.29-2.11 2.59a3.26 3.26 0 0 0 3.25 3.25c.74 0 2-1 3-1.66a2.63 2.63 0 0 0 .66 1.14 2 2 0 0 0 1.29.53zm-3.71-1.52a3.2 3.2 0 0 1-1.93.85 1.89 1.89 0 0 1-1.82-2c0-1 .55-1.45 1.53-1.93.55-.26 1.66-.77 2.22-1.06v4.15zm22.27 2.51a5.34 5.34 0 0 1-5.39-5.52 6.37 6.37 0 0 1 2.66-5.12 7.06 7.06 0 0 1 4-1.53 3.94 3.94 0 0 1 2.35.69 1 1 0 0 1 .42.85 1.34 1.34 0 0 1-.92 1.19.72.72 0 0 1-.5-.29 3.86 3.86 0 0 0-2.67-1.14c-1.61 0-3.06 1.37-3.06 4.17 0 3.65 2.51 4.84 3.94 4.84a4.07 4.07 0 0 0 3.12-1.4l.48.58a6.29 6.29 0 0 1-4.43 2.72zm14.53-2.62l-.4-.58a4.4 4.4 0 0 1-3 1.29c-1.86.05-3.86-1.41-3.86-4.89 3.07-.11 6.34-.37 6.79-.45a.69.69 0 0 0 .63-.87 4.14 4.14 0 0 0-4-4 5.56 5.56 0 0 0-3.88 1.93 6.79 6.79 0 0 0-1.77 4.65c0 3 1.9 5.63 5.18 5.63a5.88 5.88 0 0 0 4.31-2.67zm-4.52-8.59a2.38 2.38 0 0 1 2.26 2.69c0 .4-.16.53-.61.53-1.45.05-2.85.08-4.25.08.33-2.12 1.44-3.25 2.6-3.25zm11.54 10.89h-6.28v-.67c1.59-.16 1.8-.32 1.8-2v-5.56c0-1.66-.13-1.77-1.59-2v-.61a18.34 18.34 0 0 0 3.91-1.06v2.9h.05c.82-1.4 1.93-2.83 3.14-2.83a1.51 1.51 0 0 1 1.59 1.4 1.56 1.56 0 0 1-.9 1.43.61.61 0 0 1-.71-.08 1.58 1.58 0 0 0-1.16-.53c-.63 0-1.43.69-2 2.11v4.84c0 1.74.13 1.88 2.17 2v.66zM5.71 25.13c-1.63-.15-2.19-.34-2.23-1.48a38.69 38.69 0 0 1 0-4l.41-6.8h.07L9.3 25.72h.53l5.83-13.19h.1l.07 9.79c0 2.53-.07 2.67-2 2.87v.66h11.9a11.75 11.75 0 0 0 7.26-2 7.77 7.77 0 0 0 3-6.49 7.07 7.07 0 0 0-2.06-5.2c-1.51-1.46-3.81-2.09-6.9-2.09H15.82l-5.49 11.88-5.37-11.88H.78v.7c2.19.22 2.33.36 2.11 3.45l-.34 5c-.22 2.53-.36 3.62-.51 4.47s-.63 1.29-2 1.43v.73h5.71v-.72zm18.7-12.53c0-.9.07-1.19.32-1.36a3.52 3.52 0 0 1 1.82-.32 7 7 0 0 1 4.1 1.09c1.8 1.12 2.7 3.23 2.7 5.71 0 4-2.14 7.21-6.46 7.21-1.75 0-2.48-.49-2.48-2.31v-10zm-4.35-1.82c1.87.15 2.06.27 2.06 2.33v9.67c0 2-.22 2.19-2 2.33-1.85-.19-1.94-.41-2-2.84l-.24-8.82c-.07-2.4.07-2.48 2.18-2.67zm196 15.1a23.86 23.86 0 0 0 4.7-.66 22 22 0 0 0 .94-2.38 4.91 4.91 0 0 0 4.62 3 5.89 5.89 0 0 0 4.39-2.62l-.4-.58a4.4 4.4 0 0 1-3 1.3c-1.85 0-3.84-1.46-3.89-4.95 3.07-.11 6.35-.37 6.8-.45a.69.69 0 0 0 .64-.87 4.15 4.15 0 0 0-4-4 5.57 5.57 0 0 0-3.89 1.93 6.94 6.94 0 0 0-1.76 5.76c-1.24 2.27-2.62 3.54-5 3.54-3.79 0-6.53-3.23-6.53-8 0-3.84 2.21-7.4 6.38-7.4 2.59 0 4.19 1.07 4.88 3.81l.79-.18c-.15-1.4-.31-2.47-.51-3.89a18.94 18.94 0 0 0-4.52-.69c-5.74 0-9.84 3.53-9.84 8.87 0 4.06 2.77 8.43 9.17 8.43zm10.15-11.3a2.38 2.38 0 0 1 2.2 2.65c0 .4-.16.53-.61.53-1.48.09-2.88.09-4.29.09.38-2.14 1.49-3.27 2.7-3.27zm10.61 10.9h-5.85v-.71c1.77-.19 1.91-.32 1.91-2.06v-5.46c0-1.69-.16-1.77-1.56-2v-.67a19.67 19.67 0 0 0 3.89-1.06v2.06c.53-.37 1.09-.79 1.75-1.22a4 4 0 0 1 2.17-.79c2.12 0 3.41 1.51 3.41 4.08v5.08c0 1.77.16 1.85 1.64 2v.71h-5.61v-.67c1.48-.16 1.64-.34 1.64-2.2v-4.42c0-1.83-.69-2.91-2.28-2.91a4.4 4.4 0 0 0-2.73 1.24v6.25c0 1.77.16 1.88 1.61 2v.71zm6.56-10.51l-.17-.29.74-.79h1.16v-1.91l2-1.83.37.08v3.62h2.91a.75.75 0 0 1-.16 1.09h-2.75v6.75c0 2.12.9 2.49 1.54 2.49a3.42 3.42 0 0 0 1.59-.42l.24.71-1.88 1a2.6 2.6 0 0 1-1.09.34c-1.75 0-2.73-1-2.73-3.18v-7.66h-1.77zm12.07 10.88a5.89 5.89 0 0 0 4.39-2.62l-.4-.58a4.41 4.41 0 0 1-3 1.3c-1.85 0-3.84-1.46-3.89-4.95 3.07-.11 6.35-.37 6.8-.45a.69.69 0 0 0 .64-.87 4.15 4.15 0 0 0-4-4 5.57 5.57 0 0 0-3.89 1.93 6.8 6.8 0 0 0-1.77 4.66c-.07 2.89 1.88 5.58 5.12 5.58zm-.13-11.22a2.38 2.38 0 0 1 2.2 2.65c0 .4-.16.53-.61.53-1.46.05-2.86.08-4.26.08.39-2.17 1.5-3.3 2.67-3.3zm11.18 10.9h-6.29v-.75c1.59-.16 1.8-.32 1.8-2v-5.57c0-1.67-.13-1.77-1.59-2v-.62a18.37 18.37 0 0 0 3.92-1.06v2.89h.05c.82-1.4 1.93-2.83 3.15-2.83a1.51 1.51 0 0 1 1.59 1.4 1.56 1.56 0 0 1-.93 1.4.61.61 0 0 1-.71-.08 1.58 1.58 0 0 0-1.16-.53c-.64 0-1.43.69-2 2.12v4.84c0 1.75.13 1.88 2.17 2v.71z" fill="#63666A"/><path d="M199.21 19.56a6.13 6.13 0 0 0 1.81.45 2.27 2.27 0 0 1 .64.21 15 15 0 0 0 2.58.85 4 4 0 0 1 .79.34l.1.44a.41.41 0 0 1-.1.16 2.75 2.75 0 0 1-1.39.3 4.3 4.3 0 0 0-1.94-.24l-.15-.22a.4.4 0 0 0-.12 0 3.11 3.11 0 0 1-1.85 0l-.37-.13-.44-.21a2.19 2.19 0 0 1-.88-.53l-.48.17-.36-.08h-.3l-.14-.22-.58.41a3.62 3.62 0 0 0-1.87-.16 7 7 0 0 1-1.86-.06 2.61 2.61 0 0 0-.9 0 2 2 0 0 1-.89 0 9.26 9.26 0 0 0-1.39-.17 5.57 5.57 0 0 1-1-.28l-.77.07c-.47 0-.94-.07-1.41-.14a.9.9 0 0 1-.61-.24.21.21 0 0 0-.35 0h-.38a1 1 0 0 0-.21 0 6.88 6.88 0 0 1-1.28 0 2.43 2.43 0 0 1-.32-.19l-.14.19a12.59 12.59 0 0 1-2.2 0l-.15-.43-.67.52-.8-.16-.07-.68h-.42l-.73.67-.14-.31a2.06 2.06 0 0 1-.6.43c-.18-.19-.17.11-.3.1l-.43-.14v-.34l-.67.09.08.23c-.38.22-.38.22-.61 0l-.28.16-1.61.15-.35-.13a3.26 3.26 0 0 1-1.55.13.39.39 0 0 0-.17.11l-.28.17-.06-.27-.6.06-.1-.32a.71.71 0 0 0-.15 0 .9.9 0 0 1-.84.27v-.29l-.29.31a1.94 1.94 0 0 1-1.3-.07l-.25.11-.19.08-.83-.5-.17.39h-.17l-.6.05.15-.37-.17-.19c-.19.18-.36.36-.55.52a.42.42 0 0 1-.24.12.86.86 0 0 0-.67 0 1.77 1.77 0 0 0-.34 0 1 1 0 0 1-1-.34.81.81 0 0 0-.31-.13l-.43.51-.38-.08-.39.17-.12-.5-.7.09.06.14-.31.16-.15-.27-.46.29-.14-.21-.14.2-.06-.29-.66.39-.48-.21-.75.18-.21-.66-.37.65-2.31.17-.53-.16-.14.2a1.54 1.54 0 0 1-1.14-.2l-.47.34-.2-.23a.73.73 0 0 1-.73.24l-.27-.11-.39-.12-.21-.16a2.88 2.88 0 0 1-2.32.46l-.14-.55-.34.58h-.28l-.28-.35c.3-.59.3-.59.22-.82l-.47.59H146l-.26.5-.16-.26-.17.44h-.33v-.35l.1-.18h-.07v.2l-.73.21-.22-.16h-.68l.14.3-.71.24-.22-.35h-.29l-.34-.28c-.28.13-.23.52-.53.49l-.45-.37v-.51l-.36-.19a1.59 1.59 0 0 1-.32 1c-.08-.23-.12-.37-.18-.5a.3.3 0 0 0-.12 0v.32l-.26.2-.25.18a.81.81 0 0 0-.59-.63l.21.55h-.38l-.17.31a2.1 2.1 0 0 1-.29-.4l-.07-.48-1 .44-.31-.25v-.06l.3.06.37-.52a.68.68 0 0 0-.77.17l-.09-.31h-.49a.94.94 0 0 0-.65.13c-.29.15-.32.12-.55-.14a3.14 3.14 0 0 1-2-.47v-1.41a1.33 1.33 0 0 1 1.09-.45.83.83 0 0 1 .91.68h.74a2.78 2.78 0 0 0 .88 0 1.64 1.64 0 0 1 .44.06 1.36 1.36 0 0 0 .39 0c.31-.06.62-.14.93-.21h1.1l.1.23.36-.25a2.33 2.33 0 0 0 1-.15 1.51 1.51 0 0 1 1.64.3l.3-.24a1 1 0 0 1 1-.18 1.14 1.14 0 0 0 .77 0 5.35 5.35 0 0 1 1-.15c.41 0 .83-.08 1.24-.1a2.16 2.16 0 0 1 .47.09 14.33 14.33 0 0 1 2.68-.14l.06.39a.59.59 0 0 0 .47-.36.79.79 0 0 1 .86.09l.48-.29.8.09a.47.47 0 0 1 .2.08c.35.24.41.23.63-.11H155.01a.72.72 0 0 0 .32 0 .66.66 0 0 1 .55 0 1.86 1.86 0 0 0 1.16 0 1.79 1.79 0 0 1 .57 0l.41-.17a2.71 2.71 0 0 0 1.7.05c1 0 2-.06 3-.07a8.06 8.06 0 0 1 .89.08l.45-.13a.47.47 0 0 0 .22.1 2.74 2.74 0 0 0 1.2 0 .42.42 0 0 1 .2.08 1.73 1.73 0 0 0 .51 0 .53.53 0 0 1 .54.1h.9a3.35 3.35 0 0 0 .46 0l1.86-.22c.63-.07.66-.05.9.46l.13-.1a.48.48 0 0 1 .52.23l.24-.32a1 1 0 0 0 1.31.1 1.09 1.09 0 0 0 .9-.39h1.13a6.75 6.75 0 0 0 1.83-.09h4c1.1 0 2.2.08 3.3.13.36 0 .71.06 1.07.09a.25.25 0 0 0 .09.07l2.56.39c.59.09 1.2.11 1.78.25a3.86 3.86 0 0 0 1.82 0 2.36 2.36 0 0 0 1.56.18 6.42 6.42 0 0 1 1.53 0c.41 0 .81.14 1.22.2s.82.09 1.24.13a10.23 10.23 0 0 0 2.13.39z" fill="#da291c"/><path d="M2.21.8H.58V.15h3.93V.8H2.88v4.87h-.67V.8zm4.28 2.38h2.49v2.49h.73V.15h-.73v2.37H6.49V.15h-.73v5.52h.73V3.18zM15.07 5h-2.76V3.16h2.57v-.64h-2.57V.8h2.7V.15h-3.47v5.52h3.53V5zm6.29.79a1.93 1.93 0 0 0 1.6-.77 2.44 2.44 0 0 0 .4-1.47V.15h-.67v3.39a1.32 1.32 0 0 1-1.34 1.57 1.3 1.3 0 0 1-1.13-.54 1.68 1.68 0 0 1-.22-1V.15h-.69v3.37a2.39 2.39 0 0 0 .29 1.39 2 2 0 0 0 1.72.88zM25.81.98l2.51 4.69h.88V.15h-.63v4.57L26.09.15h-1v5.52h.62V.98zm6.14-.83h-.77v5.52h.77V.15zm3.88 5.52L37.59.15h-.67l-1.48 4.7-1.35-4.7h-.74l1.7 5.52h.73zM42.37 5h-2.76V3.16h2.57v-.64h-2.57V.8h2.6V.15h-3.47v5.52h3.53V5zm2.3.67h-.74V.15h1.93a2.35 2.35 0 0 1 1.24.26 1.3 1.3 0 0 1 .6 1.12 1.39 1.39 0 0 1-.38 1 1.32 1.32 0 0 1-.63.36 1 1 0 0 1 .82 1.06 7.5 7.5 0 0 0 .34 1.74h-.8a9.77 9.77 0 0 1-.25-1.46.93.93 0 0 0-1.18-1h-.94v2.49zm0-3.14h1.18a1.71 1.71 0 0 0 .71-.12.79.79 0 0 0 .37-.72.89.89 0 0 0-1.08-.9h-1.18v1.74zm6.22 2.62a1 1 0 0 1-1.19-1.09h-.71a1.88 1.88 0 0 0 .29 1.12 1.87 1.87 0 0 0 1.53.63 1.72 1.72 0 0 0 1.95-1.72 1.33 1.33 0 0 0-.49-1.1 4.34 4.34 0 0 0-1.59-.58c-.6-.16-.89-.33-.89-.82a.93.93 0 0 1 1.09-.9.88.88 0 0 1 1 .84h.71a1.53 1.53 0 0 0-.3-.94A1.8 1.8 0 0 0 50.9.05a1.68 1.68 0 0 0-1.88 1.61 1.3 1.3 0 0 0 .51 1.09 4.09 4.09 0 0 0 1.34.49c.69.19 1.14.31 1.14.93a1 1 0 0 1-1.19.98zm4.2-5h-.88v5.52h.77V.15zm2.87 5.52h.67V.8h1.58V.15h-4V.8h1.63v4.87zm4.78 0h.77V3.54L65.67.15h-.86l-1.72 2.7-1.63-2.7h-.95l2.16 3.35v2.17zm6-2.72a3.37 3.37 0 0 1 .67-2.2 2.25 2.25 0 0 1 1.74-.74c1.44 0 2.35 1 2.35 2.85 0 1.47-.56 2.95-2.41 2.95s-2.38-1.35-2.38-2.86zm.76 0a2.91 2.91 0 0 0 .46 1.74 1.57 1.57 0 0 0 2.31 0 3.17 3.17 0 0 0 .47-1.8c0-1.25-.39-2.2-1.58-2.2s-1.69 1.08-1.69 2.21zm6.25.26h2.36v-.69h-2.36V.8h2.46V.15h-3.29v5.52h.78V3.16zm7.61 2.47h.66V.76h1.62V.11h-3.93v.65h1.62v4.87zm7.17-.67h-2.7V3.12h2.51v-.64h-2.51V.76h2.64V.11h-3.39v5.52h3.45v-.67zm1.84.67l1.68-2.37 1.65 2.37h1L94.63 2.8l2-2.65h-1.02l-1.49 2.13L92.63.15h-1l1.91 2.63-2.14 2.89h.93zm5.35 0h-.73L99.13.16h.75l2.06 5.52h-.77l-.55-1.44h-2.41zm.78-2.06h1.93L99.45.85zm6.12 1.54a1 1 0 0 1-1.2-1.09h-.72a1.87 1.87 0 0 0 .29 1.12 1.89 1.89 0 0 0 1.55.63 1.73 1.73 0 0 0 2-1.72 1.32 1.32 0 0 0-.5-1.1 4.41 4.41 0 0 0-1.61-.58c-.61-.16-.9-.33-.9-.82a.94.94 0 0 1 1.11-.9.89.89 0 0 1 1.05.84h.72a1.52 1.52 0 0 0-.3-.94 1.83 1.83 0 0 0-1.4-.54 1.69 1.69 0 0 0-1.9 1.61 1.29 1.29 0 0 0 .52 1.09 4.16 4.16 0 0 0 1.35.49c.7.19 1.15.31 1.15.93a1 1 0 0 1-1.25.93z" fill="#000000"/></svg>