<svg xmlns="http://www.w3.org/2000/svg" viewBox="0 0 203.56 72"><title>MD Anderson Cancer Center</title><path d="M68.67 39.64c-2.87-.34-3.18-.75-2.41-3.31.54-1.72 1.07-3.43 1.64-5.19h8c.8 2.39 1.53 4.57 2 6.12s.23 2.05-2.18 2.39v1.21h17.56v-1.14c-2.19-.25-2.42-.42-2.42-3.23v-9.88a6.47 6.47 0 0 1 4.09-2c2.38 0 3.42 1.72 3.42 4.61v7c0 2.93-.24 3.23-2.46 3.48v1.13h8.43v-1.11c-2.23-.29-2.46-.42-2.46-3.23v-8c0-4.06-1.95-6.45-5.13-6.45a5.79 5.79 0 0 0-3.26 1.26c-1 .67-1.83 1.34-2.62 1.93v-3.31A28.36 28.36 0 0 1 85 23.59v1c2.11.42 2.35.54 2.35 3.23v8.63c0 2.45-.16 2.89-2.06 3.17-2.37-.29-2.88-.72-4.08-4.3-2.45-7.25-5-15.12-7.38-22.33l-1.34.42-7.91 21.91c-1.3 3.64-1.84 3.94-4.28 4.31v1.21h8.38v-1.2zM72 18.86h.11l3.25 10.39h-6.84c1.11-3.4 2.29-6.91 3.48-10.39zm58.44 22.49c1.35 0 4.13-.75 6.6-4.15l-.6-.92a6.45 6.45 0 0 1-4.53 2.05c-2.78 0-5.76-2.3-5.84-7.83 4.61-.17 9.54-.59 10.22-.71s1-.5 1-1.38c0-3.22-2.66-6.41-6-6.41a8.21 8.21 0 0 0-5.84 3.06 11.1 11.1 0 0 0-2.66 7.37c-.14 4.73 2.72 8.92 7.65 8.92zm-.2-17.76c2.07 0 3.34 2 3.3 4.19a.73.73 0 0 1-.91.84c-2.19.08-4.29.13-6.4.13.59-3.36 2.26-5.16 4.01-5.16zm17.21 17.26H138v-1.13c2.38-.25 2.7-.5 2.7-3.23v-8.75c0-2.64-.2-2.81-2.38-3.14v-1a26.46 26.46 0 0 0 5.88-1.68v4.57h.08C145.5 24.26 147.17 22 149 22a2.32 2.32 0 0 1 2.38 2.22 2.48 2.48 0 0 1-1.38 2.22.88.88 0 0 1-1.07-.13 2.32 2.32 0 0 0-1.75-.84c-1 0-2.15 1.09-3 3.35v7.67c0 2.76.2 3 3.26 3.23v1.13zm4.09-13.32c0-3 2.42-5.53 6.16-5.53a8.21 8.21 0 0 1 3.62.75 33.47 33.47 0 0 1 .87 4.52l-1.07.29c-.79-2.51-2.15-4.19-4.09-4.19a2.55 2.55 0 0 0-2.5 2.76c0 1.76 1.47 2.76 3.3 3.56 3.06 1.34 5.09 2.85 5.09 5.82 0 3.9-3.42 5.82-6.68 5.82a8.07 8.07 0 0 1-4.62-1.33 21.05 21.05 0 0 1-.68-5.11l1.07-.17c.76 2.76 2.54 5.28 4.93 5.28a2.73 2.73 0 0 0 2.74-2.85c0-1.72-1-2.72-3.14-3.73-2.29-1.16-5-2.58-5-5.89zm21.66 13.82c4.05 0 8.7-3.23 8.7-10 0-5.15-3.66-9.38-8.62-9.38-3.78 0-8.86 3.18-8.86 10.09-.04 4.69 3.18 9.29 8.79 9.29zm-.48-17.93c3.3 0 5.09 3.85 5.09 8.92 0 5.82-1.95 7.58-4.21 7.58-3.18 0-5.21-3.94-5.21-9.22.05-4.76 2.07-7.27 4.34-7.27zm9.66 1.17v-1a28.35 28.35 0 0 0 5.84-1.68v3.27c.8-.59 1.63-1.26 2.62-1.93a5.79 5.79 0 0 1 3.27-1.25c3.18 0 5.13 2.39 5.13 6.45v8c0 2.81.24 2.93 2.46 3.23v1.13h-8.43v-1.09c2.23-.25 2.46-.54 2.46-3.48v-7c0-2.89-1-4.61-3.42-4.61a6.47 6.47 0 0 0-4.09 2v9.89c0 2.81.24 3 2.43 3.23v1.13h-8.78v-1.16c2.66-.29 2.86-.5 2.86-3.27v-8.63c0-2.68-.24-2.82-2.34-3.22zm-71.17 16.76a6 6 0 0 0 2.9-1.13l2.42-1.55v2.68a45.75 45.75 0 0 1 6.47-1.59v-1.09l-1.19-.13c-1.51-.17-1.79-.38-1.79-2.6V13.4a40.17 40.17 0 0 1-6.48 1.42v1.09c2.78.21 3 .38 3 3v3.53a8.07 8.07 0 0 0-2.46-.46 10.46 10.46 0 0 0-10.37 10.39c-.02 5.93 4.29 8.98 7.5 8.98zm1.43-17.72a4.57 4.57 0 0 1 3.9 2.14v11.56a6.12 6.12 0 0 1-3.54 1.3c-2.42 0-5.33-2.35-5.33-7.37 0-6.12 3.33-7.62 4.97-7.62zM25.37 64.28l1.1.44a45.94 45.94 0 0 1-2.13 6.21 34 34 0 0 1-7 1C7.72 72 3.57 65 3.57 58.71c0-8.42 6.13-14 14.72-14a27 27 0 0 1 6.77 1.08c.3 2.25.53 3.93.76 6.13l-1.18.28c-1-4.33-3.42-6-7.3-6-6.24 0-9.55 5.61-9.55 11.67 0 7.5 4.11 12.59 9.78 12.59 3.77 0 5.86-2.21 7.8-6.18zM59.59 67v-8c0-4-1.94-6.42-5.1-6.42a5.76 5.76 0 0 0-3.24 1.25c-1 .67-1.82 1.33-2.61 1.92v-3.23a28.22 28.22 0 0 1-5.81 1.67v1c2.1.42 2.33.54 2.33 3.21V67c0 2.71-.2 3-2.73 3.24l.86-.53-.4-1.13a2.7 2.7 0 0 1-1.39.42c-.71 0-1.38-.58-1.38-2.46v-7.6c0-2.25-.4-4-1.82-5.21a5.23 5.23 0 0 0-3.36-1.13 18.93 18.93 0 0 0-6 2.88 2.49 2.49 0 0 0-1.27 1.75 2 2 0 0 0 1.86 1.83 1.23 1.23 0 0 0 1.27-1 7.64 7.64 0 0 1 1.15-2.75 2 2 0 0 1 1.66-.79c1.9 0 3.16 1.67 3.16 4.58v.8c-.91.79-3.8 1.88-6.17 2.75-2.14.79-3.16 2-3.16 4.08a5 5 0 0 0 4.86 5.13c1.11 0 3-1.5 4.55-2.63a4.2 4.2 0 0 0 1 1.79 3 3 0 0 0 1.94.83l2.55-1.57v1.07H51v-1.12c-2.13-.23-2.36-.41-2.36-3.23v-9.81a6.43 6.43 0 0 1 4.07-2c2.37 0 3.4 1.71 3.4 4.58v7c0 2.92-.24 3.21-2.45 3.46v1.13H62v-1.13c-2.17-.29-2.41-.41-2.41-3.23zm-22.83.88a4.68 4.68 0 0 1-2.89 1.33 2.91 2.91 0 0 1-2.73-3.17c0-1.54.83-2.29 2.29-3 .83-.42 2.49-1.21 3.32-1.67v6.53zm39.34-1.23l.71.92C75 70 72.42 71.86 70.08 71.86 65 71.86 62 67.61 62 63.15a10.87 10.87 0 0 1 10-10.54 5.7 5.7 0 0 1 3.52 1.08 1.58 1.58 0 0 1 .73 1.31 2.09 2.09 0 0 1-1.38 1.88 1.07 1.07 0 0 1-.75-.46 5.64 5.64 0 0 0-4-1.79c-2.41 0-4.59 2.17-4.59 6.58 0 5.75 3.76 7.63 5.89 7.63 1.67.02 2.94-.44 4.68-2.19zM92 59c0-3.21-2.65-6.38-6-6.38a8.17 8.17 0 0 0-5.81 3A11 11 0 0 0 77.52 63c0 4.71 2.85 8.88 7.75 8.88 1.35 0 4.11-.75 6.56-4.13l-.59-.92a6.42 6.42 0 0 1-4.51 2c-2.77 0-5.73-2.29-5.81-7.79 4.59-.17 9.49-.58 10.16-.71S92 59.86 92 59zm-4.55.21c-2.18.08-4.27.13-6.37.13.55-3.33 2.21-5.13 4-5.13 2.06 0 3.32 2 3.28 4.17a.73.73 0 0 1-.88.81zm18.78-4.38a2.47 2.47 0 0 1-1.35 2.17.88.88 0 0 1-1.07-.12 2.31 2.31 0 0 0-1.74-.83c-.95 0-2.14 1.08-3 3.33V67c0 2.75.2 3 3.24 3.21v1.13h-9.37v-1.11c2.37-.25 2.69-.5 2.69-3.21v-8.71c0-2.63-.2-2.79-2.37-3.13v-1a26.35 26.35 0 0 0 5.85-1.67v4.54h.08c1.23-2.21 2.89-4.46 4.71-4.46a2.31 2.31 0 0 1 2.36 2.22zM12.89 39.64c-2.44-.23-3.27-.54-3.34-2.34-.07-1.46-.07-3.18.07-6.32l.55-10.76h.11l8 20.3h.8l8.72-20.8h.15L28 35.15c0 4-.11 4.21-3.05 4.52v1.11H42.8c4.47 0 8.14-1 10.87-3.18s4.47-5.6 4.47-10.22a11.46 11.46 0 0 0-3.09-8.2c-2.25-2.3-5.71-3.29-10.32-3.29H28l-8.21 18.73-8-18.73H5.51V17c3.27.34 3.49.57 3.16 5.44l-.51 7.89c-.33 4-.55 5.71-.76 7-.25 1.53-.95 2-3.05 2.26v1.15h8.54v-1.1zm28-19.77c0-1.42.11-1.88.47-2.15a5 5 0 0 1 2.73-.5 10.14 10.14 0 0 1 6.14 1.72c2.69 1.76 4 5.1 4 9 0 6.24-3.2 11.38-9.67 11.38-2.62 0-3.71-.77-3.71-3.64V19.87zM34.37 17c2.8.23 3.09.42 3.09 3.68V36c0 3.11-.3 3.46-3 3.68-2.79-.3-2.9-.64-3-4.49l-.36-13.94c-.1-3.83.11-3.95 3.27-4.25zm111.87 42c0-3.21-2.65-6.39-6-6.39a8.18 8.18 0 0 0-5.82 3A11.06 11.06 0 0 0 131.7 63a11.29 11.29 0 0 0 .17 1.92c-1.86 3.59-3.92 5.57-7.5 5.57-5.67 0-9.78-5.09-9.78-12.59 0-6.05 3.31-11.67 9.55-11.67 3.88 0 6.28 1.68 7.3 6l1.18-.28c-.23-2.2-.46-3.89-.76-6.13a27 27 0 0 0-6.77-1.08c-8.6 0-14.72 5.57-14.72 14 0 6.33 4.15 13.27 13.73 13.27a34 34 0 0 0 7-1 35.77 35.77 0 0 0 1.4-3.75 7.34 7.34 0 0 0 6.92 4.67c1.35 0 4.12-.75 6.58-4.13l-.59-.92a6.43 6.43 0 0 1-4.52 2c-2.77 0-5.74-2.3-5.82-7.81 4.6-.17 9.51-.58 10.18-.71s.99-.5.99-1.36zm-4.56.21c-2.18.08-4.28.13-6.38.13.55-3.34 2.22-5.13 4-5.13 2.06 0 3.33 2 3.29 4.17a.73.73 0 0 1-.91.81zm24.48 11.06v1.13h-8.4v-1.15c2.22-.25 2.46-.54 2.46-3.47v-7c0-2.88-1-4.59-3.41-4.59a6.44 6.44 0 0 0-4.08 2V67c0 2.8.24 3 2.42 3.21v1.13h-8.76v-1.09c2.65-.29 2.85-.5 2.85-3.26V58.4c0-2.67-.24-2.8-2.34-3.21v-1a28.26 28.26 0 0 0 5.82-1.67v3.26c.79-.58 1.62-1.25 2.61-1.92a5.77 5.77 0 0 1 3.25-1.25c3.17 0 5.11 2.38 5.11 6.43v8c.01 2.79.25 2.96 2.47 3.21zm9.61-1.54l.36 1.13-2.81 1.5a3.75 3.75 0 0 1-1.62.54c-2.61 0-4.08-1.63-4.08-5V54.81H165l-.2-.46 1.11-1.25h1.74v-3l2.93-2.88.55.13v5.76h4.36a1.22 1.22 0 0 1-.24 1.71h-4.15v10.63c0 3.34 1.35 3.92 2.3 3.92a4.92 4.92 0 0 0 2.37-.66zM189.88 59c0-3.21-2.65-6.39-6-6.39a8.18 8.18 0 0 0-5.82 3 11.06 11.06 0 0 0-2.72 7.39c0 4.72 2.85 8.89 7.76 8.89 1.35 0 4.12-.75 6.58-4.13l-.59-.92a6.43 6.43 0 0 1-4.52 2c-2.77 0-5.74-2.3-5.82-7.81 4.6-.17 9.51-.58 10.18-.71s.95-.45.95-1.32zm-4.56.21c-2.18.08-4.28.13-6.38.13.55-3.34 2.22-5.13 4-5.13 2.06 0 3.33 2 3.29 4.17a.73.73 0 0 1-.91.83zm18.24-4.38a2.47 2.47 0 0 1-1.38 2.17.88.88 0 0 1-1.07-.12 2.31 2.31 0 0 0-1.74-.84c-1 0-2.14 1.09-3 3.34v7.64c0 2.76.2 3 3.25 3.21v1.17h-9.43v-1.13c2.38-.25 2.69-.5 2.69-3.21v-8.73c0-2.63-.2-2.8-2.38-3.13v-1a26.39 26.39 0 0 0 5.86-1.67v4.55h.08c1.23-2.21 2.89-4.47 4.71-4.47a2.31 2.31 0 0 1 2.41 2.21z" fill="#63666A"/><path d="M98.89 62a8.8 8.8 0 0 0 2.71.72 3.28 3.28 0 0 1 1 .34 21.66 21.66 0 0 0 3.86 1.34 5.85 5.85 0 0 1 1.18.54l.19.74a.65.65 0 0 1-.15.26c-.69.17-1.28.68-2.08.48a6.12 6.12 0 0 0-2.91-.38l-.23-.42a.57.57 0 0 0-.17 0 4.43 4.43 0 0 1-2.77-.06l-.58-.14c-.22-.11-.45-.21-.66-.34a3.25 3.25 0 0 1-1.32-.84l-.72.27-.53-.13h-.48l-.23-.3-.86.65a5.16 5.16 0 0 0-2.8-.26 9.93 9.93 0 0 1-2.79-.1 3.71 3.71 0 0 0-1.35.06 2.83 2.83 0 0 1-1.33 0 13.18 13.18 0 0 0-2.08-.26 8 8 0 0 1-1.5-.44l-1.16.12c-.7-.07-1.41-.11-2.11-.23a1.32 1.32 0 0 1-.92-.39.31.31 0 0 0-.52 0h-.56a1.41 1.41 0 0 0-.31-.05 9.77 9.77 0 0 1-1.92-.06 3.6 3.6 0 0 1-.49-.31l-.21.29a17.88 17.88 0 0 1-3.3.06l-.21-.6-1 .82-1.2-.25-.06-1.13h-.64l-1.08 1.1-.21-.49c-.4.07-.41.72-.9.68-.26-.29-.25.18-.45.16l-.64-.23-.07-.53-1 .15.12.37c-.58.35-.58.35-.91 0l-.42.26-2.42.23-.52-.2a4.65 4.65 0 0 1-2.31.21.58.58 0 0 0-.26.17l-.42.27-.09-.43-.9.1-.14-.5a1 1 0 0 0-.22 0c-.39.17-.66.7-1.26.43l-.06-.46-.43.49a2.77 2.77 0 0 1-1.94-.12l-.37.18-.28.16-1.24-.78-.26.59h-.25l-.89.08.22-.59-.26-.3c-.28.28-.54.56-.82.82a.61.61 0 0 1-.35.19c-.37-.34-.67.12-1 .07a2.52 2.52 0 0 0-.51 0 1.48 1.48 0 0 1-1.45-.54 1.17 1.17 0 0 0-.47-.2l-.65.8-.5-.19-.58.27-.17-.79-1 .15a.15.15 0 0 0 0 .05c0 .06 0 .11.1.22l-.57.15-.22-.43-.7.43-.21-.34-.21.34-.1-.45-1 .62-.72-.34-1.09.3-.32-1-.55 1-3.46.27-.77-.4-.22.31a2.21 2.21 0 0 1-1.72-.31l-.7.54-.3-.37a1.06 1.06 0 0 1-1.1.37l-.4-.17-.59-.2-.32-.26a4.13 4.13 0 0 1-3.47.72l-.21-.87-.47.95h-.42l-.43-.56c.45-.92.45-.92.33-1.3l-.7.94-.5.06-.39.78-.23-.41-.26.69h-.5v-.52l.1-.28h-.1l-.05.31-1.1.33-.33-.26h-1l.21.48-1.07.37-.33-.55h-.43l-.51-.45c-.42.2-.35.82-.8.77l-.67-.59.06-.8-.53-.31a2.61 2.61 0 0 1-.49 1.59c-.12-.36-.19-.58-.27-.8a.43.43 0 0 0-.19 0v.5l-.4.3-.38.28a1.25 1.25 0 0 0-.89-1l.37.9-.57-.05-.26.48a3.33 3.33 0 0 1-.41-.61l-.1-.75-1.48.75-.46-.39v-.1l.44.1.55-.82a1 1 0 0 0-1.1.21l-.13-.49h-.79a1.35 1.35 0 0 0-1 .21c-.4.28-.44.2-.79-.22-1.13.37-2-.4-3-.74v-2.17a2 2 0 0 1 1.63-.71A1.26 1.26 0 0 1 3 61h1.1a4 4 0 0 0 1.32 0 2.33 2.33 0 0 1 .66.1 1.93 1.93 0 0 0 .58 0c.47-.09.93-.22 1.4-.33H9.7l.15.36.54-.39a3.33 3.33 0 0 0 1.55-.24 2.17 2.17 0 0 1 2.45.47l.45-.38a1.37 1.37 0 0 1 1.44-.28 1.62 1.62 0 0 0 1.16 0 7.63 7.63 0 0 1 1.51-.23c.62-.07 1.24-.13 1.86-.16a3.09 3.09 0 0 1 .7.14c1.26-.43 2.63 0 4-.22l.13.58a.89.89 0 0 0 .71-.57 1.13 1.13 0 0 1 1.28.14l.72-.46 1.19.15a.68.68 0 0 1 .3.12c.52.38.61.37.94-.17l.92-.05h1.11a1 1 0 0 0 .48-.06.94.94 0 0 1 .82-.05 2.65 2.65 0 0 0 1.74-.05 2.55 2.55 0 0 1 .85-.06l.57.12a3.87 3.87 0 0 0 2.55.09c1.5 0 3-.09 4.49-.11a11.47 11.47 0 0 1 1.33.13l.67-.2a.69.69 0 0 0 .33.16c.6-.1 1.18.44 1.8.06a.62.62 0 0 1 .3.13 2.46 2.46 0 0 0 .76 0 .77.77 0 0 1 .81.16l1.35.05a4.76 4.76 0 0 0 .68 0l2.78-.35c.94-.11 1-.08 1.35.73l.19-.16a.7.7 0 0 1 .77.36l.35-.5c.66.35 1.27.8 2 .16a1.6 1.6 0 0 0 1.35-.61h1.67a9.59 9.59 0 0 0 2.74-.15h6c1.64 0 3.29.13 4.93.21.54 0 1.07.09 1.6.14a.37.37 0 0 0 .13.11l3.8.51a26.34 26.34 0 0 1 2.67.4 5.49 5.49 0 0 0 2.73-.05 3.37 3.37 0 0 0 2.34.29A9.12 9.12 0 0 1 92 61c.61 0 1.22.23 1.83.32s1.23.13 1.85.2a14.59 14.59 0 0 0 3.21.48z" fill="#da291c"/><path d="M5.15.23H11v1H8.59v7.71h-1V1.26H5.15v-1zM17.73 4H14V.23h-1.09v8.71H14V5h3.73v3.94h1.09V.23h-1.09V4zm5 1h3.85V4H22.7V1.26h4v-1h-5.15v8.68h5.28V7.88H22.7V5zm15.51.58c0 .63 0 2.47-2 2.47a1.9 1.9 0 0 1-1.69-.86 2.77 2.77 0 0 1-.33-1.57V.23h-1v5.31a3.94 3.94 0 0 0 .43 2.2 3 3 0 0 0 2.62 1.39 2.83 2.83 0 0 0 2.39-1.21 4 4 0 0 0 .61-2.32V.23h-1v5.35zM47 7.44L43.37.24H42v8.7h.9V1.55l3.76 7.4H48V.23h-1v7.2zm3.92 1.51h1.15V.23h-1.13v8.71zm6.44-1.27l-2-7.45h-1.1l2.54 8.71h1.09L60.53.23h-1zM63.54 5h3.85V4h-3.85V1.26h4v-1H62.4v8.68h5.28V7.88h-4.14V5zm11.81 1.21a12.4 12.4 0 0 0 .5 2.74h-1.2a16.18 16.18 0 0 1-.37-2.3C74.16 5.37 73.88 5 72.52 5h-1.4v3.94H70V.23h2.88a3.36 3.36 0 0 1 1.86.41 2.09 2.09 0 0 1 .89 1.77A2.25 2.25 0 0 1 75.07 4a2 2 0 0 1-1 .57 1.56 1.56 0 0 1 1.28 1.64zm-.88-3.55a1.35 1.35 0 0 0-1.61-1.41h-1.77V4h1.77a2.44 2.44 0 0 0 1.06-.19 1.26 1.26 0 0 0 .55-1.15zm8 2c-.47-.3-.64-.35-2.4-.88-.9-.25-1.33-.52-1.33-1.29a1.42 1.42 0 0 1 1.64-1.41 1.34 1.34 0 0 1 1.55 1.32H83a2.5 2.5 0 0 0-.45-1.48 2.62 2.62 0 0 0-2.08-.86 2.56 2.56 0 0 0-2.82 2.55 2.09 2.09 0 0 0 .77 1.71 5.94 5.94 0 0 0 2 .77c1 .3 1.7.49 1.7 1.47a1.76 1.76 0 0 1-3.51-.17h-1.06A3.1 3.1 0 0 0 78 8.16a2.72 2.72 0 0 0 2.29 1 2.64 2.64 0 0 0 2.92-2.71 2.15 2.15 0 0 0-.75-1.75zm3.09 4.25h1.15V.23h-1.17v8.71zm3-7.69H91v7.72h1V1.26h2.45v-1h-5.92v1zm10.2 3.28L96.32.23H94.9l3.23 5.29v3.42h1.16V5.58l3.23-5.35h-1.28zm15.54 0c0 2.32-.83 4.65-3.6 4.65s-3.52-2.11-3.52-4.5a5.53 5.53 0 0 1 1-3.48 3.28 3.28 0 0 1 2.6-1.17c2.16 0 3.52 1.55 3.52 4.5zm-1.14 0c0-2-.58-3.48-2.36-3.48-2 0-2.48 1.77-2.48 3.56a4.79 4.79 0 0 0 .68 2.75 2.27 2.27 0 0 0 3.45 0 5.2 5.2 0 0 0 .71-2.84zm3.34 4.45h1.17V5h3.54V4h-3.54V1.26h3.76v-1h-4.93v8.68zm10.14-7.75h2.43v7.68h1V1.19h2.43v-1h-5.85v1zm9.12 3.73h3.76v-1h-3.76V1.19h4v-1h-5.07v8.69h5.16V7.82h-4v-2.9zM148.83.18h-1.39l-2.24 3.34L143 .17h-1.5l2.86 4.15-3.21 4.56h1.39l2.52-3.74 2.46 3.74H149l-3.09-4.54zm5 0l3.08 8.71h-1.15l-.86-2.28h-3.54l-.82 2.27h-1.09l3.21-8.71h1.13zm.79 5.47l-1.4-4.27-1.48 4.27h2.88zm8.36-1c-.43-.34-.63-.39-2.41-.92-.91-.25-1.34-.52-1.34-1.29A1.43 1.43 0 0 1 160.85 1a1.35 1.35 0 0 1 1.57 1.33h1.08a2.48 2.48 0 0 0-.5-1.47 2.66 2.66 0 0 0-2.1-.86 2.57 2.57 0 0 0-2.84 2.55 2.08 2.08 0 0 0 .78 1.71 6 6 0 0 0 2 .77c1 .3 1.72.49 1.72 1.47a1.78 1.78 0 0 1-3.55-.17H158a3.07 3.07 0 0 0 .43 1.76 2.76 2.76 0 0 0 2.32 1 2.65 2.65 0 0 0 2.95-2.71 2.14 2.14 0 0 0-.75-1.75z" fill="#000000"/></svg>